<?xml version="1.0" standalone="no"?>
<!DOCTYPE svg PUBLIC "-//W3C//DTD SVG 20010904//EN"
 "http://www.w3.org/TR/2001/REC-SVG-20010904/DTD/svg10.dtd">
<svg version="1.0" xmlns="http://www.w3.org/2000/svg"
 width="492.000000pt" height="143.000000pt" viewBox="0 0 492.000000 143.000000"
 preserveAspectRatio="xMidYMid meet">

<g transform="translate(0.000000,143.000000) scale(0.100000,-0.100000)"
fill="#000000" stroke="none">
<path d="M174 1136 c-61 -27 -64 -45 -64 -430 0 -388 2 -400 63 -429 31 -15
78 -17 382 -17 304 0 351 2 382 17 61 29 63 41 63 429 0 388 -2 403 -66 430
-48 20 -714 20 -760 0z m356 -164 c0 -17 -178 -202 -194 -202 -16 0 -116 104
-116 121 0 30 21 22 70 -26 l46 -45 84 85 c85 85 110 101 110 67z m358 -179
c-3 -16 -21 -18 -188 -20 -179 -3 -220 2 -206 26 5 7 70 11 202 11 181 0 195
-1 192 -17z m-361 -169 c4 -11 -23 -45 -88 -110 -51 -52 -98 -94 -103 -94 -18
0 -116 104 -116 122 0 29 21 21 70 -27 l46 -45 84 85 c47 47 88 85 93 85 4 0
10 -7 14 -16z m363 -184 c0 -20 -5 -20 -197 -18 -179 3 -198 5 -201 21 -3 16
11 17 197 17 195 0 201 -1 201 -20z"/>
<path d="M3561 1057 c-12 -51 -45 -148 -72 -216 -27 -68 -49 -129 -49 -136 0
-6 8 -20 19 -29 16 -15 32 -16 120 -10 95 6 101 8 101 28 0 40 -16 45 -91 28
-38 -8 -72 -12 -76 -8 -8 8 10 61 84 246 29 73 51 140 49 146 -3 7 -18 20 -33
28 l-29 14 -23 -91z"/>
<path d="M1474 1121 c-44 -27 -64 -59 -64 -103 0 -50 18 -67 132 -124 51 -25
101 -53 111 -62 25 -22 21 -57 -9 -81 -30 -24 -112 -29 -161 -10 -43 16 -102
59 -108 80 -9 27 -24 24 -36 -8 -20 -54 25 -104 124 -137 131 -44 228 9 230
124 1 64 -19 86 -129 141 -45 23 -95 55 -111 71 l-28 30 24 19 c37 30 143 26
201 -7 42 -24 45 -24 57 -8 37 51 -12 85 -127 91 -62 4 -80 1 -106 -16z"/>
<path d="M1860 1101 c-28 -56 -68 -201 -76 -275 -8 -74 7 -130 39 -150 83 -51
187 -4 246 112 35 69 72 205 74 271 2 62 0 66 -20 69 -22 3 -23 0 -23 -63 0
-176 -78 -362 -160 -380 -46 -10 -68 2 -81 44 -21 69 23 241 85 340 l27 42
-35 14 c-50 21 -53 20 -76 -24z"/>
<path d="M2270 1117 c-67 -23 -80 -39 -56 -69 12 -17 15 -17 54 4 22 13 43 20
46 17 8 -8 -21 -88 -83 -234 -28 -66 -51 -125 -51 -131 0 -13 33 -44 46 -44 6
0 16 23 23 52 22 84 58 164 73 158 28 -10 99 0 135 19 118 60 135 183 31 237
-40 21 -143 17 -218 -9z m245 -42 c14 -13 25 -33 25 -44 0 -53 -100 -116 -172
-109 l-36 3 41 88 42 87 38 0 c27 0 45 -7 62 -25z"/>
<path d="M2723 1133 c-51 -2 -93 -8 -93 -13 0 -20 13 -40 26 -40 18 0 18 -22
-3 -88 -14 -44 -23 -57 -47 -65 -26 -9 -27 -11 -13 -22 23 -17 21 -28 -18
-120 l-33 -80 21 -22 c21 -21 27 -22 145 -16 103 5 122 9 122 22 -1 40 -13 44
-106 31 -48 -6 -92 -14 -96 -16 -15 -10 -8 31 18 108 30 85 34 88 122 88 46 0
52 3 52 20 0 26 -33 39 -83 32 l-38 -4 35 71 36 71 75 0 c41 0 75 4 75 9 0 32
-14 41 -59 39 -25 -1 -88 -4 -138 -5z"/>
<path d="M3065 1133 c-46 -10 -115 -35 -120 -44 -5 -7 8 -42 20 -57 2 -2 18 6
36 17 74 46 73 31 -13 -174 -75 -177 -74 -172 -53 -195 27 -29 42 -24 50 16 3
20 20 71 37 114 41 105 56 101 97 -29 28 -89 53 -132 77 -131 5 0 17 7 27 15
18 13 18 16 -12 59 -18 25 -43 69 -56 98 l-24 53 57 26 c93 42 127 103 98 173
-11 26 -26 41 -50 51 -33 14 -126 18 -171 8z m189 -54 c53 -41 21 -104 -70
-138 -30 -12 -68 -21 -84 -21 l-29 0 42 90 c41 88 43 89 78 90 22 0 47 -8 63
-21z"/>
<path d="M4065 1124 c-45 -23 -65 -53 -65 -102 0 -55 22 -76 138 -132 102 -49
122 -65 122 -96 0 -38 -44 -64 -109 -64 -69 0 -132 27 -177 77 l-33 36 -11
-29 c-18 -47 7 -86 76 -119 147 -69 275 -23 276 99 1 65 -20 90 -126 145 -84
45 -136 83 -136 101 0 23 48 40 110 40 51 0 74 -6 110 -26 42 -24 45 -24 58
-7 7 10 11 27 10 38 -7 45 -178 73 -243 39z"/>
<path d="M4488 1133 c-95 -4 -98 -4 -98 -27 0 -29 16 -36 82 -36 36 0 49 -4
45 -12 -2 -7 -31 -90 -63 -184 -58 -170 -59 -172 -40 -193 26 -29 44 -26 52 7
28 125 89 314 120 374 14 26 19 28 79 28 l65 0 -12 25 c-10 23 -16 25 -72 23
-34 -1 -105 -4 -158 -5z"/>
<path d="M3846 1058 c-43 -94 -88 -247 -90 -308 -1 -35 4 -54 18 -69 11 -12
22 -21 26 -21 4 0 10 29 13 64 7 74 66 262 102 325 14 23 25 46 25 50 0 7 -44
31 -56 31 -3 0 -20 -33 -38 -72z"/>
<path d="M1462 410 l0 -75 12 45 c6 25 8 47 5 50 -4 3 -9 16 -12 30 -2 14 -5
-9 -5 -50z"/>
<path d="M1883 405 c0 -44 2 -61 4 -37 2 23 2 59 0 80 -2 20 -4 1 -4 -43z"/>
<path d="M1352 463 c26 -4 27 -7 31 -71 l3 -67 2 67 c2 64 3 67 30 71 15 2 0
4 -33 4 -33 0 -48 -2 -33 -4z"/>
<path d="M1742 414 c6 -68 26 -92 65 -78 27 9 28 13 29 74 1 64 1 64 -3 8 -3
-45 -8 -60 -24 -69 -33 -17 -49 5 -49 67 0 33 -4 54 -11 54 -8 0 -10 -18 -7
-56z"/>
<path d="M2552 398 l1 -73 7 60 c6 58 6 59 18 32 7 -16 12 -34 12 -41 0 -7 6
-21 14 -31 12 -17 15 -13 34 41 l20 59 1 -58 c1 -36 5 -56 11 -52 6 3 10 35
10 71 0 83 -21 88 -46 9 -10 -30 -21 -52 -24 -48 -4 5 -13 29 -20 56 -20 75
-40 62 -38 -25z"/>
<path d="M2880 405 c0 -64 12 -86 23 -43 l6 21 20 -24 c24 -28 28 -18 6 15
-14 21 -14 24 0 36 8 7 15 18 15 24 0 6 -12 -2 -25 -17 l-25 -28 0 40 c0 23
-4 41 -10 41 -6 0 -10 -28 -10 -65z"/>
<path d="M3232 403 l-2 -73 34 0 c19 0 38 5 41 10 4 6 -8 10 -29 10 l-35 0 -4
63 -3 62 -2 -72z"/>
<path d="M1922 444 c-7 -8 -8 -15 -2 -19 6 -3 10 -24 10 -45 0 -42 15 -60 33
-40 9 9 8 11 -3 8 -19 -4 -27 61 -9 73 9 5 9 10 -2 22 -12 11 -17 12 -27 1z"/>
<path d="M2309 448 c-4 -34 4 -104 12 -112 6 -6 14 -5 22 3 10 10 9 12 -3 9
-19 -4 -27 61 -9 73 9 5 8 11 -4 24 -13 12 -17 13 -18 3z"/>
<path d="M3088 449 c-10 -27 6 -112 22 -117 12 -4 13 -2 3 9 -19 19 -16 70 5
85 15 12 15 13 0 14 -9 0 -18 5 -20 12 -3 8 -6 7 -10 -3z"/>
<path d="M3472 448 c-11 -11 -4 -87 11 -105 5 -7 15 -13 21 -12 7 0 6 2 -1 6
-17 6 -17 80 -1 85 10 4 9 9 -3 21 -11 11 -20 12 -27 5z"/>
<path d="M1512 424 c9 -10 18 -37 21 -59 l4 -40 1 47 c2 40 -2 49 -20 59 -22
11 -22 11 -6 -7z"/>
<path d="M1588 429 c-12 -6 -18 -22 -18 -45 0 -27 5 -37 25 -46 20 -9 28 -9
38 1 9 10 8 11 -6 5 -17 -6 -47 11 -47 27 0 5 16 9 35 9 19 0 35 4 35 9 0 18
-12 41 -21 41 -6 0 -5 -9 1 -20 10 -18 8 -20 -20 -20 -34 0 -37 6 -13 32 18
20 16 22 -9 7z"/>
<path d="M2042 381 c1 -47 2 -49 5 -16 8 79 49 80 56 2 l4 -42 1 47 c2 49 -4
58 -44 63 -23 2 -24 0 -22 -54z"/>
<path d="M2210 429 c-12 -9 -12 -10 4 -5 19 6 46 -9 46 -25 0 -5 -11 -9 -24
-9 -30 0 -54 -26 -38 -42 6 -6 25 -12 42 -13 29 -2 30 0 30 40 0 57 -25 79
-60 54z m50 -63 c0 -18 -30 -30 -43 -17 -5 5 -6 14 -3 20 10 16 46 13 46 -3z"/>
<path d="M2386 424 c-29 -29 -10 -94 27 -94 7 0 19 5 27 11 13 9 12 10 -2 5
-24 -7 -48 3 -48 20 0 9 11 14 30 14 23 0 30 4 30 20 0 10 -9 24 -19 30 -25
13 -27 13 -45 -6z m52 -30 c-3 -3 -19 -4 -34 -2 -27 3 -27 4 -9 21 16 17 19
17 33 3 9 -9 13 -18 10 -22z"/>
<path d="M2720 429 c-12 -8 -12 -10 5 -8 35 3 45 -1 45 -15 0 -9 -12 -16 -27
-18 -31 -3 -44 -35 -21 -49 22 -14 33 -10 13 4 -21 16 -12 37 17 37 15 0 19
-5 15 -20 -3 -11 -1 -23 4 -26 5 -3 9 14 9 38 0 60 -24 82 -60 57z"/>
<path d="M2833 433 c-20 -4 -23 -11 -23 -49 0 -24 5 -44 10 -44 6 0 10 16 10
36 0 23 6 42 18 50 9 7 15 13 12 12 -3 0 -15 -3 -27 -5z"/>
<path d="M2990 420 c-11 -11 -20 -27 -20 -35 0 -16 34 -55 48 -55 4 0 14 5 22
11 12 9 12 10 -4 5 -19 -6 -46 9 -46 25 0 5 16 9 35 9 35 0 40 5 29 34 -9 23
-23 20 -17 -4 4 -16 0 -20 -21 -20 -30 0 -34 17 -8 36 9 7 14 14 10 14 -5 0
-17 -9 -28 -20z"/>
<path d="M3386 424 c-19 -19 -13 -32 21 -45 32 -12 24 -34 -13 -32 -27 1 -28
1 -7 -9 29 -14 53 -4 53 22 0 13 -10 24 -26 30 -31 12 -26 36 7 32 19 -2 21 0
9 8 -20 13 -26 13 -44 -6z"/>
<path d="M1990 385 c0 -25 5 -45 10 -45 6 0 10 20 10 45 0 25 -4 45 -10 45 -5
0 -10 -20 -10 -45z"/>
<path d="M2146 419 c4 -7 11 -29 15 -49 7 -34 7 -33 6 9 -1 28 -7 46 -16 49
-9 3 -11 0 -5 -9z"/>
<path d="M3330 385 c0 -25 5 -45 10 -45 6 0 10 20 10 45 0 25 -4 45 -10 45 -5
0 -10 -20 -10 -45z"/>
<path d="M3620 400 c0 -7 192 -10 555 -10 363 0 555 3 555 10 0 7 -192 10
-555 10 -363 0 -555 -3 -555 -10z"/>
</g>
</svg>
